<svg id="visual" viewBox="0 0 500 500" width="500" height="500" xmlns="http://www.w3.org/2000/svg" xmlns:xlink="http://www.w3.org/1999/xlink" version="1.1"><g transform="translate(279.2749475430375 259.7466320640338)"><path d="M89.7 -117.5C118 -103 143.6 -79 148.2 -51.3C152.8 -23.7 136.3 7.6 124.7 39.6C113 71.5 106.2 104.1 86.2 113.3C66.2 122.4 33.1 108.1 -3.4 112.8C-40 117.5 -79.9 141.3 -119.6 138.5C-159.2 135.8 -198.5 106.5 -206.1 70C-213.7 33.6 -189.6 -10.1 -171.5 -52.6C-153.4 -95.2 -141.4 -136.6 -113.8 -151.3C-86.2 -166 -43.1 -154 -6.2 -145.5C30.8 -137 61.5 -132 89.7 -117.5" fill="#3b82f6"></path></g></svg>