<svg id="visual" viewBox="0 0 1580 720" width="1580" height="720" xmlns="http://www.w3.org/2000/svg" xmlns:xlink="http://www.w3.org/1999/xlink" version="1.1"><path d="M0 526L22 524.2C44 522.3 88 518.7 131.8 514.2C175.7 509.7 219.3 504.3 263.2 505.5C307 506.7 351 514.3 395 517.8C439 521.3 483 520.7 526.8 511.5C570.7 502.3 614.3 484.7 658.2 486.3C702 488 746 509 790 512.7C834 516.3 878 502.7 921.8 494.3C965.7 486 1009.3 483 1053.2 488.5C1097 494 1141 508 1185 515C1229 522 1273 522 1316.8 514.3C1360.7 506.7 1404.3 491.3 1448.2 488.2C1492 485 1536 494 1558 498.5L1580 503L1580 721L1558 721C1536 721 1492 721 1448.2 721C1404.3 721 1360.7 721 1316.8 721C1273 721 1229 721 1185 721C1141 721 1097 721 1053.2 721C1009.3 721 965.7 721 921.8 721C878 721 834 721 790 721C746 721 702 721 658.2 721C614.3 721 570.7 721 526.8 721C483 721 439 721 395 721C351 721 307 721 263.2 721C219.3 721 175.7 721 131.8 721C88 721 44 721 22 721L0 721Z" fill="#2463eb"></path><path d="M0 542L22 543C44 544 88 546 131.8 543.2C175.7 540.3 219.3 532.7 263.2 529C307 525.3 351 525.7 395 528.7C439 531.7 483 537.3 526.8 544.3C570.7 551.3 614.3 559.7 658.2 557.5C702 555.3 746 542.7 790 537.3C834 532 878 534 921.8 531.5C965.7 529 1009.3 522 1053.2 520.8C1097 519.7 1141 524.3 1185 528.5C1229 532.7 1273 536.3 1316.8 537.3C1360.7 538.3 1404.3 536.7 1448.2 541.8C1492 547 1536 559 1558 565L1580 571L1580 721L1558 721C1536 721 1492 721 1448.2 721C1404.3 721 1360.7 721 1316.8 721C1273 721 1229 721 1185 721C1141 721 1097 721 1053.2 721C1009.3 721 965.7 721 921.8 721C878 721 834 721 790 721C746 721 702 721 658.2 721C614.3 721 570.7 721 526.8 721C483 721 439 721 395 721C351 721 307 721 263.2 721C219.3 721 175.7 721 131.8 721C88 721 44 721 22 721L0 721Z" fill="#1e58db"></path><path d="M0 598L22 591.8C44 585.7 88 573.3 131.8 566.8C175.7 560.3 219.3 559.7 263.2 561.7C307 563.7 351 568.3 395 571.7C439 575 483 577 526.8 576.3C570.7 575.7 614.3 572.3 658.2 572C702 571.7 746 574.3 790 575.2C834 576 878 575 921.8 571.5C965.7 568 1009.3 562 1053.2 567.2C1097 572.3 1141 588.7 1185 594.3C1229 600 1273 595 1316.8 593C1360.7 591 1404.3 592 1448.2 591C1492 590 1536 587 1558 585.5L1580 584L1580 721L1558 721C1536 721 1492 721 1448.2 721C1404.3 721 1360.7 721 1316.8 721C1273 721 1229 721 1185 721C1141 721 1097 721 1053.2 721C1009.3 721 965.7 721 921.8 721C878 721 834 721 790 721C746 721 702 721 658.2 721C614.3 721 570.7 721 526.8 721C483 721 439 721 395 721C351 721 307 721 263.2 721C219.3 721 175.7 721 131.8 721C88 721 44 721 22 721L0 721Z" fill="#164ecc"></path><path d="M0 603L22 609C44 615 88 627 131.8 634C175.7 641 219.3 643 263.2 641.5C307 640 351 635 395 630.5C439 626 483 622 526.8 623.7C570.7 625.3 614.3 632.7 658.2 636C702 639.3 746 638.7 790 636.5C834 634.3 878 630.7 921.8 628C965.7 625.3 1009.3 623.7 1053.2 620.3C1097 617 1141 612 1185 613.5C1229 615 1273 623 1316.8 629.7C1360.7 636.3 1404.3 641.7 1448.2 644.7C1492 647.7 1536 648.3 1558 648.7L1580 649L1580 721L1558 721C1536 721 1492 721 1448.2 721C1404.3 721 1360.7 721 1316.8 721C1273 721 1229 721 1185 721C1141 721 1097 721 1053.2 721C1009.3 721 965.7 721 921.8 721C878 721 834 721 790 721C746 721 702 721 658.2 721C614.3 721 570.7 721 526.8 721C483 721 439 721 395 721C351 721 307 721 263.2 721C219.3 721 175.7 721 131.8 721C88 721 44 721 22 721L0 721Z" fill="#0c44bd"></path><path d="M0 680L22 678.2C44 676.3 88 672.7 131.8 673C175.7 673.3 219.3 677.7 263.2 676.5C307 675.3 351 668.7 395 670.7C439 672.7 483 683.3 526.8 682.2C570.7 681 614.3 668 658.2 666.8C702 665.7 746 676.3 790 682.8C834 689.3 878 691.7 921.8 689.7C965.7 687.7 1009.3 681.3 1053.2 677C1097 672.7 1141 670.3 1185 672.8C1229 675.3 1273 682.7 1316.8 683C1360.7 683.3 1404.3 676.7 1448.2 677C1492 677.3 1536 684.7 1558 688.3L1580 692L1580 721L1558 721C1536 721 1492 721 1448.2 721C1404.3 721 1360.7 721 1316.8 721C1273 721 1229 721 1185 721C1141 721 1097 721 1053.2 721C1009.3 721 965.7 721 921.8 721C878 721 834 721 790 721C746 721 702 721 658.2 721C614.3 721 570.7 721 526.8 721C483 721 439 721 395 721C351 721 307 721 263.2 721C219.3 721 175.7 721 131.8 721C88 721 44 721 22 721L0 721Z" fill="#003aae"></path></svg>