<svg width="1122" height="186" viewBox="0 0 1122 186" fill="none" xmlns="http://www.w3.org/2000/svg">
<path d="M0.815697 0.45454H55.4545L101.804 113.476H103.943L150.293 0.45454H204.931V183H161.969V70.87H160.454L116.6 181.841H89.147L45.2933 70.2461H43.7781V183H0.815697V0.45454ZM296.36 185.585C281.98 185.585 269.62 182.643 259.281 176.761C249.001 170.818 241.068 162.559 235.482 151.982C229.956 141.345 227.193 129.015 227.193 114.991C227.193 100.908 229.956 88.5779 235.482 78.0007C241.068 67.3641 249.001 59.1044 259.281 53.2216C269.62 47.2794 281.98 44.3082 296.36 44.3082C310.74 44.3082 323.071 47.2794 333.351 53.2216C343.69 59.1044 351.623 67.3641 357.149 78.0007C362.735 88.5779 365.528 100.908 365.528 114.991C365.528 129.015 362.735 141.345 357.149 151.982C351.623 162.559 343.69 170.818 333.351 176.761C323.071 182.643 310.74 185.585 296.36 185.585ZM296.628 152.695C301.857 152.695 306.284 151.09 309.908 147.881C313.533 144.673 316.296 140.216 318.198 134.511C320.159 128.807 321.139 122.211 321.139 114.724C321.139 107.118 320.159 100.462 318.198 94.7578C316.296 89.0533 313.533 84.5966 309.908 81.3878C306.284 78.179 301.857 76.5746 296.628 76.5746C291.22 76.5746 286.645 78.179 282.901 81.3878C279.217 84.5966 276.394 89.0533 274.433 94.7578C272.532 100.462 271.581 107.118 271.581 114.724C271.581 122.211 272.532 128.807 274.433 134.511C276.394 140.216 279.217 144.673 282.901 147.881C286.645 151.09 291.22 152.695 296.628 152.695ZM476.187 123.904V46.0909H519.684V183H478.148V157.508H476.722C473.691 165.886 468.522 172.542 461.213 177.474C453.963 182.346 445.198 184.783 434.918 184.783C425.589 184.783 417.389 182.643 410.317 178.365C403.246 174.087 397.75 168.115 393.828 160.449C389.906 152.724 387.915 143.692 387.856 133.353V46.0909H431.442V124.796C431.501 132.224 433.462 138.077 437.325 142.355C441.187 146.634 446.446 148.773 453.101 148.773C457.439 148.773 461.331 147.822 464.778 145.92C468.284 143.96 471.047 141.137 473.067 137.453C475.147 133.709 476.187 129.193 476.187 123.904ZM591.013 0.45454V183H547.427V0.45454H591.013ZM682.754 185.585C668.433 185.585 656.073 182.762 645.674 177.117C635.335 171.413 627.372 163.301 621.787 152.784C616.26 142.207 613.497 129.639 613.497 115.08C613.497 100.938 616.29 88.5779 621.876 78.0007C627.462 67.3641 635.335 59.1044 645.496 53.2216C655.657 47.2794 667.631 44.3082 681.417 44.3082C691.162 44.3082 700.076 45.8235 708.157 48.854C716.238 51.8846 723.221 56.371 729.103 62.3132C734.986 68.2554 739.562 75.5941 742.83 84.3292C746.098 93.0048 747.732 102.958 747.732 114.189V125.063H628.739V99.7493H707.177C707.117 95.1143 706.018 90.9845 703.879 87.3597C701.739 83.735 698.798 80.9124 695.054 78.892C691.37 76.8123 687.122 75.7724 682.308 75.7724C677.436 75.7724 673.068 76.8717 669.206 79.0703C665.343 81.2095 662.283 84.1509 660.025 87.8945C657.767 91.5787 656.578 95.768 656.46 100.462V126.222C656.46 131.808 657.559 136.71 659.758 140.929C661.956 145.089 665.076 148.327 669.117 150.645C673.157 152.962 677.971 154.121 683.556 154.121C687.419 154.121 690.925 153.586 694.074 152.516C697.223 151.447 699.927 149.872 702.185 147.792C704.443 145.712 706.137 143.157 707.266 140.127L747.287 141.286C745.623 150.258 741.968 158.072 736.323 164.728C730.738 171.324 723.399 176.464 714.307 180.148C705.216 183.772 694.698 185.585 682.754 185.585ZM889.521 87.8945L849.501 88.9641C849.085 86.1119 847.956 83.5864 846.113 81.3878C844.271 79.1297 841.865 77.3768 838.894 76.1289C835.982 74.8216 832.595 74.168 828.732 74.168C823.682 74.168 819.373 75.1781 815.808 77.1985C812.302 79.2189 810.579 81.9523 810.638 85.3988C810.579 88.0728 811.648 90.3903 813.847 92.3512C816.105 94.3121 820.116 95.8868 825.88 97.0753L852.264 102.067C865.931 104.681 876.092 109.019 882.747 115.08C889.462 121.141 892.849 129.163 892.909 139.146C892.849 148.535 890.056 156.706 884.53 163.658C879.063 170.61 871.576 176.018 862.068 179.88C852.561 183.683 841.686 185.585 829.445 185.585C809.896 185.585 794.475 181.574 783.185 173.552C771.954 165.47 765.537 154.656 763.932 141.107L806.984 140.038C807.935 145.029 810.401 148.832 814.382 151.447C818.363 154.061 823.444 155.369 829.624 155.369C835.209 155.369 839.755 154.329 843.261 152.249C846.767 150.169 848.55 147.406 848.609 143.96C848.55 140.87 847.183 138.404 844.509 136.561C841.835 134.66 837.646 133.174 831.941 132.105L808.053 127.559C794.327 125.063 784.106 120.458 777.392 113.743C770.677 106.969 767.349 98.3529 767.409 87.8945C767.349 78.7435 769.785 70.9294 774.718 64.4524C779.65 57.916 786.661 52.9245 795.753 49.478C804.845 46.0315 815.57 44.3082 827.93 44.3082C846.47 44.3082 861.088 48.2004 871.784 55.9847C882.48 63.7096 888.392 74.3462 889.521 87.8945ZM957.954 104.919V183H914.367V0.45454H956.528V71.2266H958.043C961.133 62.7886 966.184 56.1927 973.196 51.4389C980.267 46.6851 988.913 44.3082 999.133 44.3082C1008.76 44.3082 1017.14 46.4474 1024.27 50.7259C1031.4 54.9448 1036.93 60.9168 1040.85 68.6417C1044.83 76.3666 1046.79 85.3988 1046.73 95.7383V183H1003.14V104.295C1003.2 96.689 1001.3 90.7468 997.44 86.4684C993.577 82.19 988.14 80.0508 981.128 80.0508C976.553 80.0508 972.512 81.061 969.006 83.0813C965.56 85.0423 962.856 87.8648 960.895 91.549C958.994 95.2332 958.013 99.6899 957.954 104.919ZM1098.45 185.585C1092.03 185.585 1086.54 183.327 1081.96 178.811C1077.44 174.295 1075.22 168.828 1075.28 162.41C1075.22 156.111 1077.44 150.734 1081.96 146.277C1086.54 141.761 1092.03 139.503 1098.45 139.503C1104.51 139.503 1109.86 141.761 1114.49 146.277C1119.19 150.734 1121.57 156.111 1121.63 162.41C1121.57 166.689 1120.44 170.581 1118.24 174.087C1116.1 177.593 1113.28 180.385 1109.77 182.465C1106.32 184.545 1102.55 185.585 1098.45 185.585Z" fill="black"/>
</svg>
